<?xml version="1.0" encoding="utf-8"?>
<!-- Generator: Adobe Illustrator 24.1.0, SVG Export Plug-In . SVG Version: 6.00 Build 0)  -->
<svg version="1.1" id="Layer_1" xmlns="http://www.w3.org/2000/svg" xmlns:xlink="http://www.w3.org/1999/xlink" x="0px" y="0px"
	 viewBox="0 0 1026.8 494" style="enable-background:new 0 0 1026.8 494;" xml:space="preserve">
<style type="text/css">
	.st0{fill:#202945;}
</style>
<g>
	<g>
		<g>
			<polygon class="st0" points="184.1,249.6 215.3,249.6 215.3,167.3 242.8,167.3 242.8,145.3 156.5,145.3 156.5,167.3 184.1,167.3 
							"/>
			<polygon class="st0" points="317.7,249.6 348.9,249.6 348.9,145.3 317.7,145.3 317.7,186.4 284.8,186.4 284.8,145.3 253.6,145.3 
				253.6,249.6 284.8,249.6 284.8,206.9 317.7,206.9 			"/>
			<polygon class="st0" points="389.9,207.7 420.1,207.7 420.1,186.1 389.9,186.1 389.9,166.5 440.6,166.5 440.6,145.3 359.3,145.3 
				359.3,249.6 441.9,249.6 441.9,227.9 389.9,227.9 			"/>
			<path class="st0" d="M111.6,315.3l-1.8-0.6l1.7-0.7c10-4.1,15-11.2,15-21c0-18.6-12.5-26.8-40.7-26.8H39.1v104.2H85
				c32.6,0,45.9-8.7,45.9-30.2C130.9,328,124.4,319.6,111.6,315.3 M69.3,284.7h13.6c4.7,0,8,1.1,10.2,3.3c2,2.1,2.9,5.1,2.8,9.1
				c0,8.3-5,12.1-15.6,12.1H69.3V284.7z M82.3,351.9H69.3v-27.5h13.6c5.9,0,10.1,1.3,12.7,4c2.3,2.3,3.4,5.6,3.3,10.1
				C98.9,347.7,93.6,351.9,82.3,351.9"/>
			<path class="st0" d="M192.7,264c-33.5,0-56.1,21.9-56.1,54.5c0,32.4,22,54.2,54.8,54.2c33.5,0,56.1-21.9,56.1-54.5
				C247.6,285.7,225.5,264,192.7,264 M214.9,319.9c0,20-7.7,30.1-22.8,30.1c-14.9,0-22.8-10.4-22.8-30v-3.3
				c0-19.7,7.9-30.1,22.8-30.1c14.9,0,22.8,10.4,22.8,30V319.9z"/>
			<path class="st0" d="M309,346.1l7.8,24.3h32.7L314,266.2h-34.8l-36.4,104.2h24.8l7.8-24.3H309z M293.1,292.4l11.2,36.2h-23.7
				L293.1,292.4z"/>
			<path class="st0" d="M418.7,364.5c0.1,2,0.2,4.7,0.3,5.9h31.5c-0.2-2.3-0.6-8.2-1.2-11.8c-3.2-23.4-10.9-33.6-27.3-36.5l-3.6-0.6
				l3.6-0.7c16.7-3.4,25.8-13,25.8-27.2c0-12.8-5-27.5-44-27.5h-45v104.2h30.6v-38h7.7C413.6,332.6,417.3,348.7,418.7,364.5
				 M389.5,284.4h9.6c13.1,0,19.1,4.8,19.1,15.2c0,10.7-7.9,17.4-20.7,17.6l-8,0.9V284.4z"/>
			<path class="st0" d="M561.4,318.6c0-43.3-29.9-52.4-55-52.4h-45.9v104.2h44.3C540.8,370.4,561.4,351.5,561.4,318.6 M491.8,350.3
				v-63.9h12.1c18.2,0,25.3,8.9,25.3,31.7v0.6c0,22.7-7.2,31.6-25.7,31.6H491.8z"/>
			<path class="st0" d="M629.7,364.5c0.1,2,0.2,4.7,0.3,5.9h31.5c-0.2-2.3-0.6-8.2-1.2-11.8c-3.2-23.4-10.9-33.6-27.3-36.5l-3.6-0.6
				l3.6-0.7c16.7-3.4,25.8-13,25.8-27.2c0-12.8-5-27.5-44-27.5h-45v104.2h30.6v-38h7.7C624.5,332.6,628.2,348.7,629.7,364.5
				 M600.4,284.4h9.6c13.1,0,19.1,4.8,19.1,15.2c0,10.7-7.9,17.4-20.7,17.6l-8,0.9V284.4z"/>
			<path class="st0" d="M718.7,372.6c33.5,0,56.1-21.9,56.1-54.5c0-32.4-22-54.2-54.8-54.2c-33.6,0-56.1,21.9-56.1,54.5
				C663.9,350.9,685.9,372.6,718.7,372.6 M696.5,316.7c0-19.7,7.9-30.1,22.8-30.1c14.9,0,22.8,10.4,22.8,30v3.3
				c0,20-7.7,30.1-22.8,30.1c-14.9,0-22.8-10.4-22.8-30V316.7z"/>
			<path class="st0" d="M837.9,264c-33.5,0-56.1,21.9-56.1,54.5c0,32.4,22,54.2,54.8,54.2c33.5,0,56.1-21.9,56.1-54.5
				C892.7,285.7,870.7,264,837.9,264 M860.1,319.9c0,20-7.7,30.1-22.8,30.1c-14.9,0-22.8-10.4-22.8-30v-3.3
				c0-19.7,7.9-30.1,22.8-30.1c14.9,0,22.8,10.4,22.8,30V319.9z"/>
			<polygon class="st0" points="971.4,370.4 996.2,284.4 996.2,370.4 1026.8,370.4 1026.8,266.2 979.3,266.2 964,323 948.8,266.2 
				900.7,266.2 900.7,370.4 924.8,370.4 924.8,284.8 948.9,370.4 			"/>
			<path class="st0" d="M279.2,387l-36.4,104.2h24.8l7.8-24.3H309l7.8,24.3h32.7L314,387H279.2z M280.6,449.4l12.5-36.2l11.3,36.2
				H280.6z"/>
			<polygon class="st0" points="388.9,454.2 419.9,454.2 419.9,432.5 388.9,432.5 388.9,408.7 435.8,408.7 435.8,387 357.7,387 
				357.7,491.3 388.9,491.3 			"/>
			<path class="st0" d="M508.9,443l-3.6-0.6l3.6-0.7c16.7-3.4,25.8-13,25.8-27.2c0-12.8-5-27.5-44-27.5h-45v104.2h30.6v-38h7.7
				c16.3,0.2,20.1,16.3,21.5,32.1c0.1,2.1,0.2,4.7,0.3,5.9h31.5c-0.2-2.3-0.6-8.2-1.2-11.8C532.9,456.1,525.3,445.9,508.9,443
				 M484.4,437.9l-8,0.9v-33.6h9.6c13.1,0,19.1,4.8,19.1,15.2C505.1,431.1,497.2,437.8,484.4,437.9"/>
			<rect x="548.9" y="387" class="st0" width="31.2" height="104.2"/>
			<path class="st0" d="M666,450.2c-2,13.6-8.9,19.9-21.6,19.9c-14.2,0-21.1-9.6-21.1-29.3v-3.2c0-19.7,7.1-29.3,21.7-29.3
				c11,0,18.4,6.1,20.9,17.2h26.6c-4.1-26.2-21.3-40.6-48.5-40.6c-32.2,0-53.1,21.4-53.1,54.5c0,32.9,20.6,54.2,52.4,54.2
				c30,0,47.7-15.4,49.8-43.3H666z"/>
			<path class="st0" d="M757.8,466.9l7.8,24.3h32.7L762.9,387h-34.8l-36.4,104.2h24.8l7.8-24.3H757.8z M741.9,413.2l11.3,36.2h-23.7
				L741.9,413.2z"/>
		</g>
	</g>
	<path class="st0" d="M110.1,54.2C110.1,24.3,86.3,0,57,0C27.6,0,3.8,24.3,3.8,54.2c0,24.6,16,45.3,38,51.9v37.1v0H3.8
		c-2.1,0-3.8,1.7-3.8,3.9v19.3c0,2.2,1.7,3.9,3.8,3.9h37.9v38.7L57,224.5l11.4-11.6L57,201.3v-31v-27.1V120h15.2v-13.9
		C94.1,99.5,110.1,78.7,110.1,54.2 M57,58.3c-9.5,0-17.2-7.9-17.2-17.6c0-9.7,7.7-17.6,17.2-17.6c9.5,0,17.2,7.9,17.2,17.6
		C74.2,50.5,66.5,58.3,57,58.3"/>
	<path class="st0" d="M110.1,143.3h-38v27.1h38c2.1,0,3.8-1.7,3.8-3.9v-19.3C114,145,112.3,143.3,110.1,143.3"/>
</g>
</svg>
